<svg xmlns="http://www.w3.org/2000/svg" viewBox="0 0 440.41 512">
  <defs>
    <style>
      .a {
        fill: #ff1a77;
      }

      .b {
        fill: #d4145a;
      }

      .c {
        fill: #a5114d;
      }
    </style>
  </defs>
  <polygon class="a" points="210.44 0 210.44 117.68 22.78 121.49 210.44 0"/>
  <polygon class="b" points="203.93 136.68 80.27 347.12 3.25 139.93 203.93 136.68"/>
  <polygon class="a" points="0 184.41 0 367.5 66.17 362.31 0 184.41"/>
  <polygon class="c" points="74.85 379.66 168.14 479.46 16.27 384 74.85 379.66"/>
  <polygon class="b" points="229.97 0 229.97 117.68 417.63 121.49 229.97 0"/>
  <polygon class="a" points="236.47 136.68 360.14 347.12 437.15 139.93 236.47 136.68"/>
  <polygon class="b" points="440.41 184.41 440.41 367.5 374.24 362.31 440.41 184.41"/>
  <polygon class="c" points="365.56 379.66 272.27 479.46 424.14 384 365.56 379.66"/>
  <polygon class="c" points="220.2 144.85 94.1 360.85 346.31 360.85 220.2 144.85"/>
  <polygon class="b" points="97.63 377.49 220.2 512 342.78 377.49 97.63 377.49"/>
</svg>
